<svg xmlns="http://www.w3.org/2000/svg" version="1.1" xmlns:xlink="http://www.w3.org/1999/xlink" xmlns:svgjs="http://svgjs.dev/svgjs" viewBox="0 0 1920 1080"><rect width="1920" height="1080" fill="#5a5a5a"></rect><g transform="matrix(-2.112515728529184e-16,-1.15,1.15,-2.112515728529184e-16,293.8476562500002,1592.0748046875)"><path d="M0,-1080C-14.56032182055518,-995.6276260230508,-107.91062040324633,-704.9566106125635,-87.36193092333107,-573.7657561383046C-66.81324144341582,-442.5749016640457,92.76202915088179,-430.3069883740163,123.2921368794915,-292.85487315444664C153.8222446081012,-155.40275793487697,105.58478252039545,128.37528928788157,95.81871544832714,250.94693517911344C86.05264837625883,373.5185810703453,89.21002191086563,325.2131352642423,64.69573444708163,442.57500219294445C40.18144698329763,559.9368691216466,-44.23885649379705,819.7139457049483,-51.26700933437684,955.1181367513265C-58.29516217495662,1090.5223277977045,22.941328684062217,1142.5255107795413,22.526817403602905,1255.0001484712134C22.112306123143593,1367.4747861628855,-49.999607449865564,1479.1326543132275,-53.754077017132715,1629.9659629013586C-57.508546584399866,1780.7992714894897,-8.959012836188785,2071.660993816893,0,2160L 1920 2160 L 1920 -1080 Z" fill="url(&quot;#SvgjsLinearGradient1229&quot;)"></path><path d="M384,-1080C387.9077233139618,-936.2341568237548,393.42760798654535,-488.34220944571223,407.4463398837708,-217.4049409425286C421.46507178099625,53.53232756065498,457.29213992653496,270.0859145668536,468.1123913833529,545.6236110191016C478.9326428401708,821.1613074713497,486.3865805219036,1166.7585062741432,472.3678486246782,1435.8212377709597C458.3491167274527,1704.8839692677761,398.7279747707797,2039.3035396284934,384,2160L 1920 2160 L 1920 -1080 Z" fill="url(&quot;#SvgjsLinearGradient1230&quot;)"></path><path d="M768,-1080C757.0440075886225,-975.2119246538734,706.4831894571519,-634.8792882766494,702.2640455317352,-451.2715479232405C698.0449016063185,-267.66380756983165,732.6918138127346,-134.28836638062978,742.6851364475,21.646442120453116C752.6784590822654,177.58125062153601,746.4002977607968,318.76075958667957,762.2239813403278,484.3373030832569C778.0476649198588,649.9138465798343,824.09470673355,826.6810906551302,837.6272379246857,1015.1057030999175C851.1597691158214,1203.5303155447048,855.0237081412564,1424.0692616019671,843.4191684871421,1614.8849777519808C831.8146288330278,1805.7006939019946,780.5698614145236,2069.147496291997,768,2160L 1920 2160 L 1920 -1080 Z" fill="url(&quot;#SvgjsLinearGradient1231&quot;)"></path><path d="M1152,-1080C1134.8750279881822,-958.5317224232878,1045.2908672207345,-622.9326837384859,1049.2501679290926,-351.1903345397265C1053.2094686374508,-79.44798534096708,1172.3873891383962,280.122480710222,1175.7558042501491,550.4540951925565C1179.124219361902,820.7857096748909,1073.4199593079684,1002.5417015530395,1069.4606585996103,1270.79935235428C1065.5013578912522,1539.0570031555205,1138.2434430999351,2011.7998920590467,1152,2160L 1920 2160 L 1920 -1080 Z" fill="url(&quot;#SvgjsLinearGradient1232&quot;)"></path><path d="M1536,-1080C1516.1371819631927,-986.1833073054848,1422.2365508510738,-685.3639554459721,1416.8230917791566,-517.0998438329092C1411.4096327072393,-348.83573221984625,1471.728656858019,-228.07102406661437,1503.5192455684958,-70.41533032162246C1535.3098342789726,87.24036342336944,1584.994812167794,223.3731945824982,1607.566624042017,428.8343186370423C1630.1384359162403,634.2954426915865,1657.947215991641,977.1992351952262,1638.9501168138354,1162.3514140056423C1619.9530176360297,1347.5035928160585,1510.7423817774884,1373.4726271671461,1493.5840289751825,1539.7473914995392C1476.4256761728766,1706.0221558319322,1528.9306714958639,2056.6245652499233,1536,2160L 1920 2160 L 1920 -1080 Z" fill="url(&quot;#SvgjsLinearGradient1233&quot;)"></path></g><defs><linearGradient x1="0.1" y1="0" x2="0" y2="1" id="SvgjsLinearGradient1229"><stop stop-color="#5a5a5a" offset="0"></stop><stop stop-color="#5a5a5a" offset="0"></stop></linearGradient><linearGradient x1="0.1" y1="0" x2="0" y2="1" id="SvgjsLinearGradient1230"><stop stop-color="#484848" offset="0"></stop><stop stop-color="#484848" offset="0.2"></stop></linearGradient><linearGradient x1="0.1" y1="0" x2="0" y2="1" id="SvgjsLinearGradient1231"><stop stop-color="#363636" offset="0"></stop><stop stop-color="#363636" offset="0.4"></stop></linearGradient><linearGradient x1="0.1" y1="0" x2="0" y2="1" id="SvgjsLinearGradient1232"><stop stop-color="#242424" offset="0"></stop><stop stop-color="#242424" offset="0.6"></stop></linearGradient><linearGradient x1="0.1" y1="0" x2="0" y2="1" id="SvgjsLinearGradient1233"><stop stop-color="#121212" offset="0"></stop><stop stop-color="#121212" offset="0.8"></stop></linearGradient></defs></svg>